<svg width="260" height="72" viewBox="0 0 260 72" fill="none" xmlns="http://www.w3.org/2000/svg" role="img" aria-labelledby="title">
  <title id="title">ORT ACE</title>
  <defs>
    <linearGradient id="mark-bg" x1="11" y1="11" x2="61" y2="61" gradientUnits="userSpaceOnUse">
      <stop stop-color="#FFFFFF"/>
      <stop offset=".55" stop-color="#EFFCF9"/>
      <stop offset="1" stop-color="#DFEFF7"/>
    </linearGradient>
    <filter id="soft-shadow" x="0" y="0" width="74" height="74" filterUnits="userSpaceOnUse" color-interpolation-filters="sRGB">
      <feDropShadow dx="0" dy="10" stdDeviation="8" flood-color="#16717C" flood-opacity=".16"/>
    </filter>
  </defs>
  <g filter="url(#soft-shadow)">
    <rect x="10" y="10" width="52" height="52" rx="16" fill="url(#mark-bg)" stroke="#CCE8ED" stroke-width="1.5"/>
    <path d="M13.5 13H58V29C45.8 24.5 31.8 24 12 30V16C12 14.4 12.5 13.4 13.5 13Z" fill="white" fill-opacity=".7"/>
    <circle cx="55" cy="55" r="15" fill="#8FE8D2" fill-opacity=".48"/>
    <path d="M20.2 36.1C24.1 29.1 29.4 25.7 36 25.7C42.7 25.7 47.9 29.1 51.8 36.1C47.9 43 42.7 46.4 36 46.4C29.4 46.4 24.1 43 20.2 36.1Z" fill="white" stroke="#102338" stroke-width="2.7" stroke-linejoin="round"/>
    <path d="M28.2 37.5L33.6 42.8L45.6 27.8" stroke="#1594A6" stroke-width="3.1" stroke-linecap="round" stroke-linejoin="round"/>
    <circle cx="36" cy="36.2" r="5" fill="#102338" stroke="white" stroke-width="2.2"/>
    <circle cx="37.9" cy="34.4" r="1.2" fill="white"/>
    <path d="M52.1 24C54 25.4 55.6 27.2 56.9 29.2M15.1 42.7C16.4 44.8 18.1 46.5 20.2 47.9" stroke="#80D7E4" stroke-width="2.4" stroke-linecap="round"/>
  </g>
  <path d="M88.6 48.6C84.9 48.6 81.6 47.8 78.8 46.1C76 44.5 73.9 42.2 72.3 39.4C70.8 36.6 70 33.4 70 29.8C70 26.2 70.8 23 72.3 20.2C73.9 17.4 76 15.1 78.8 13.5C81.6 11.8 84.9 11 88.6 11C92.3 11 95.5 11.8 98.3 13.5C101.1 15.1 103.3 17.4 104.9 20.2C106.4 23 107.2 26.2 107.2 29.8C107.2 33.4 106.4 36.6 104.9 39.4C103.3 42.2 101.1 44.5 98.3 46.1C95.5 47.8 92.3 48.6 88.6 48.6ZM88.6 41C90.5 41 92.1 40.5 93.5 39.6C94.9 38.7 96 37.4 96.8 35.7C97.6 34 98 32 98 29.8C98 27.6 97.6 25.6 96.8 23.9C96 22.2 94.9 20.9 93.5 20C92.1 19.1 90.5 18.6 88.6 18.6C86.7 18.6 85.1 19.1 83.7 20C82.3 20.9 81.2 22.2 80.4 23.9C79.6 25.6 79.2 27.6 79.2 29.8C79.2 32 79.6 34 80.4 35.7C81.2 37.4 82.3 38.7 83.7 39.6C85.1 40.5 86.7 41 88.6 41Z" fill="#102338"/>
  <path d="M113.5 47.9V11.8H129.6C133.8 11.8 137.1 12.8 139.5 14.8C141.9 16.8 143.1 19.7 143.1 23.3C143.1 25.6 142.5 27.5 141.5 29.1C140.4 30.7 139 31.9 137.1 32.7L144.7 47.9H134.9L128.7 34.6H122.5V47.9H113.5ZM122.5 27.8H128.7C130.4 27.8 131.8 27.4 132.7 26.7C133.6 25.9 134 24.8 134 23.4C134 22 133.6 20.9 132.7 20.2C131.8 19.4 130.4 19 128.7 19H122.5V27.8Z" fill="#102338"/>
  <path d="M158.4 47.9V19.4H147.2V11.8H178.3V19.4H167.3V47.9H158.4Z" fill="#102338"/>
  <path d="M177.9 47.9L191.7 11.8H201.7L215.5 47.9H205.8L203.4 41.2H189.6L187.2 47.9H177.9ZM192 34.3H201L196.5 21.1L192 34.3Z" fill="#1594A6"/>
  <path d="M234.5 48.6C230.8 48.6 227.6 47.8 224.9 46.2C222.2 44.6 220 42.4 218.5 39.6C217 36.8 216.2 33.6 216.2 30C216.2 26.4 217 23.2 218.5 20.4C220 17.6 222.2 15.3 224.9 13.7C227.6 12 230.8 11.2 234.5 11.2C237.5 11.2 240.2 11.8 242.6 12.9C244.9 14.1 246.9 15.7 248.4 17.8C249.9 19.9 250.9 22.3 251.3 25H242.2C241.7 23.1 240.8 21.5 239.5 20.5C238.2 19.4 236.6 18.8 234.6 18.8C232.7 18.8 231.1 19.3 229.8 20.2C228.5 21.1 227.5 22.4 226.8 24.1C226.1 25.8 225.7 27.7 225.7 29.9C225.7 32.2 226.1 34.1 226.8 35.8C227.5 37.5 228.5 38.8 229.8 39.7C231.1 40.6 232.7 41.1 234.6 41.1C236.6 41.1 238.2 40.6 239.5 39.5C240.8 38.4 241.7 36.9 242.2 34.9H251.3C250.9 37.7 249.9 40.1 248.4 42.1C246.9 44.2 244.9 45.8 242.6 46.9C240.2 48.1 237.5 48.6 234.5 48.6Z" fill="#102338"/>
</svg>
