<svg xmlns="http://www.w3.org/2000/svg" width="1600" height="480" viewBox="0 0 1600 480" fill="none">
  <defs>
    <linearGradient id="bg3" x1="74" y1="70" x2="414" y2="410" gradientUnits="userSpaceOnUse">
      <stop stop-color="#FFFFFF"/>
      <stop offset="0.5" stop-color="#E8FFF8"/>
      <stop offset="1" stop-color="#DDEEFF"/>
    </linearGradient>
    <linearGradient id="path3" x1="108" y1="314" x2="382" y2="139" gradientUnits="userSpaceOnUse">
      <stop stop-color="#73E8D6"/>
      <stop offset="0.5" stop-color="#6BCFFF"/>
      <stop offset="1" stop-color="#B5A5FF"/>
    </linearGradient>
    <linearGradient id="pink3" x1="313" y1="111" x2="410" y2="194" gradientUnits="userSpaceOnUse">
      <stop stop-color="#FF91B0"/>
      <stop offset="1" stop-color="#FFD0A8"/>
    </linearGradient>
    <linearGradient id="ace3" x1="920" y1="160" x2="1365" y2="310" gradientUnits="userSpaceOnUse">
      <stop stop-color="#2BD7C7"/>
      <stop offset="0.52" stop-color="#48C4F5"/>
      <stop offset="1" stop-color="#A998FF"/>
    </linearGradient>
    <filter id="shadow3" x="20" y="20" width="1480" height="440" filterUnits="userSpaceOnUse" color-interpolation-filters="sRGB">
      <feDropShadow dx="0" dy="18" stdDeviation="24" flood-color="#24445E" flood-opacity="0.18"/>
      <feDropShadow dx="0" dy="2" stdDeviation="4" flood-color="#0F2437" flood-opacity="0.16"/>
    </filter>
  </defs>
  <rect width="1600" height="480" fill="#FFFDFB"/>
  <g filter="url(#shadow3)">
    <rect x="74" y="70" width="340" height="340" rx="94" fill="url(#bg3)" stroke="#CFECEF" stroke-width="4"/>
    <path d="M116 294C146 236 190 195 249 171C296 153 339 151 378 164" stroke="url(#path3)" stroke-width="31" stroke-linecap="round"/>
    <path d="M121 318C174 288 224 271 270 266C314 261 354 269 389 289" stroke="white" stroke-width="10" stroke-linecap="round" opacity="0.86"/>
    <path d="M126 222C160 181 201 161 248 161C295 161 336 181 371 222C336 264 295 285 248 285C201 285 160 264 126 222Z" fill="white" stroke="#102338" stroke-width="10.5" stroke-linecap="round" stroke-linejoin="round"/>
    <circle cx="213" cy="222" r="27" fill="#5EDFE5"/>
    <circle cx="213" cy="222" r="13.5" fill="#102338"/>
    <circle cx="224" cy="211" r="6.5" fill="white"/>
    <path d="M279 219C296 205 316 205 334 219" stroke="#102338" stroke-width="10" stroke-linecap="round"/>
    <path d="M187 250C203 263 224 271 249 272C276 273 299 266 320 253" stroke="#1594A6" stroke-width="9" stroke-linecap="round"/>
    <path d="M318 127C338 115 354 96 366 70C369 106 383 130 410 143C378 148 357 165 344 195C342 165 334 143 318 127Z" fill="url(#pink3)" stroke="#FF8EA9" stroke-width="4"/>
    <path d="M292 318C314 303 333 285 348 263" stroke="#7DDBE5" stroke-width="9" stroke-linecap="round"/>
    <path d="M346 265L374 253L369 283" stroke="#7DDBE5" stroke-width="9" stroke-linecap="round" stroke-linejoin="round"/>
    <circle cx="188" cy="318" r="14" fill="#FF9BAF" stroke="white" stroke-width="5"/>
    <text x="505" y="300" font-family="Inter, Avenir Next, Arial, sans-serif" font-size="148" font-weight="900" letter-spacing="-4" fill="#102338">ORT</text>
    <text x="858" y="300" font-family="Inter, Avenir Next, Arial, sans-serif" font-size="148" font-weight="900" letter-spacing="-4" fill="url(#ace3)">ACE</text>
  </g>
</svg>
