<svg xmlns="http://www.w3.org/2000/svg" width="1600" height="480" viewBox="0 0 1600 480" fill="none">
  <defs>
    <linearGradient id="bg1" x1="74" y1="70" x2="414" y2="410" gradientUnits="userSpaceOnUse">
      <stop stop-color="#FFFFFF"/>
      <stop offset="0.48" stop-color="#E9FFF8"/>
      <stop offset="1" stop-color="#DCEEFF"/>
    </linearGradient>
    <linearGradient id="path1" x1="120" y1="316" x2="390" y2="150" gradientUnits="userSpaceOnUse">
      <stop stop-color="#6EE8D6"/>
      <stop offset="0.52" stop-color="#78D4FF"/>
      <stop offset="1" stop-color="#BCA8FF"/>
    </linearGradient>
    <linearGradient id="pink1" x1="310" y1="96" x2="405" y2="183" gradientUnits="userSpaceOnUse">
      <stop stop-color="#FF8FAE"/>
      <stop offset="1" stop-color="#FFD0A8"/>
    </linearGradient>
    <linearGradient id="ace1" x1="920" y1="160" x2="1365" y2="310" gradientUnits="userSpaceOnUse">
      <stop stop-color="#2FD5C6"/>
      <stop offset="0.52" stop-color="#4CC3F4"/>
      <stop offset="1" stop-color="#AA9BFF"/>
    </linearGradient>
    <filter id="shadow1" x="20" y="20" width="1480" height="440" filterUnits="userSpaceOnUse" color-interpolation-filters="sRGB">
      <feDropShadow dx="0" dy="18" stdDeviation="24" flood-color="#24445E" flood-opacity="0.18"/>
      <feDropShadow dx="0" dy="2" stdDeviation="4" flood-color="#0F2437" flood-opacity="0.16"/>
    </filter>
  </defs>
  <rect width="1600" height="480" fill="#FFFDFB"/>
  <g filter="url(#shadow1)">
    <rect x="74" y="70" width="340" height="340" rx="96" fill="url(#bg1)" stroke="#CFECEF" stroke-width="4"/>
    <path d="M112 312C147 250 196 207 258 184C305 166 347 164 386 177" stroke="url(#path1)" stroke-width="32" stroke-linecap="round"/>
    <path d="M120 332C176 293 228 270 277 263C321 256 359 262 391 281" stroke="white" stroke-width="10" stroke-linecap="round" opacity="0.84"/>
    <path d="M125 222C159 181 199 160 246 160C293 160 334 181 369 222C334 264 293 285 246 285C199 285 159 264 125 222Z" fill="white" stroke="#102338" stroke-width="10.5" stroke-linecap="round" stroke-linejoin="round"/>
    <circle cx="216" cy="224" r="26" fill="#5DDBE4"/>
    <circle cx="216" cy="224" r="13" fill="#102338"/>
    <circle cx="227" cy="213" r="6.5" fill="white"/>
    <path d="M280 225C297 211 315 211 332 225" stroke="#102338" stroke-width="10" stroke-linecap="round"/>
    <path d="M196 254C217 269 245 274 281 267" stroke="#1594A6" stroke-width="9" stroke-linecap="round"/>
    <path d="M313 126C335 112 352 92 365 67C368 103 382 128 410 141C378 147 357 164 344 194C341 164 331 141 313 126Z" fill="url(#pink1)" stroke="#FF8EA9" stroke-width="4"/>
    <path d="M292 318C313 303 330 286 344 265" stroke="#7DDBE5" stroke-width="9" stroke-linecap="round"/>
    <path d="M342 267L370 257L364 286" stroke="#7DDBE5" stroke-width="9" stroke-linecap="round" stroke-linejoin="round"/>
    <text x="505" y="300" font-family="Inter, Avenir Next, Arial, sans-serif" font-size="148" font-weight="900" letter-spacing="-4" fill="#102338">ORT</text>
    <text x="858" y="300" font-family="Inter, Avenir Next, Arial, sans-serif" font-size="148" font-weight="900" letter-spacing="-4" fill="url(#ace1)">ACE</text>
  </g>
</svg>
