<svg xmlns="http://www.w3.org/2000/svg" width="1600" height="480" viewBox="0 0 1600 480" fill="none">
  <defs>
    <linearGradient id="bg2" x1="74" y1="70" x2="414" y2="410" gradientUnits="userSpaceOnUse">
      <stop stop-color="#FFFFFF"/>
      <stop offset="0.48" stop-color="#F0FFFC"/>
      <stop offset="1" stop-color="#E8E4FF"/>
    </linearGradient>
    <linearGradient id="path2" x1="105" y1="325" x2="388" y2="118" gradientUnits="userSpaceOnUse">
      <stop stop-color="#9AF2E4"/>
      <stop offset="0.45" stop-color="#72D6FF"/>
      <stop offset="1" stop-color="#FFABC6"/>
    </linearGradient>
    <linearGradient id="ace2" x1="920" y1="160" x2="1365" y2="310" gradientUnits="userSpaceOnUse">
      <stop stop-color="#26D0C1"/>
      <stop offset="0.48" stop-color="#4DBBF2"/>
      <stop offset="1" stop-color="#BBA2FF"/>
    </linearGradient>
    <filter id="shadow2" x="20" y="20" width="1480" height="440" filterUnits="userSpaceOnUse" color-interpolation-filters="sRGB">
      <feDropShadow dx="0" dy="18" stdDeviation="24" flood-color="#314B67" flood-opacity="0.17"/>
      <feDropShadow dx="0" dy="2" stdDeviation="4" flood-color="#0F2437" flood-opacity="0.15"/>
    </filter>
  </defs>
  <rect width="1600" height="480" fill="#FFFDFB"/>
  <g filter="url(#shadow2)">
    <rect x="74" y="70" width="340" height="340" rx="100" fill="url(#bg2)" stroke="#D4EEF3" stroke-width="4"/>
    <path d="M124 317C152 246 199 194 264 160C303 140 340 128 376 124C355 162 344 198 344 232C345 267 362 298 394 324C341 332 293 328 250 314C207 300 165 301 124 317Z" fill="url(#path2)" opacity="0.86"/>
    <path d="M135 323C190 276 241 244 288 226C330 210 363 203 389 205" stroke="white" stroke-width="11" stroke-linecap="round" opacity="0.86"/>
    <path d="M124 223C159 179 200 157 248 157C297 157 338 179 374 223C338 267 297 289 248 289C200 289 159 267 124 223Z" fill="white" stroke="#102338" stroke-width="10.5" stroke-linecap="round" stroke-linejoin="round"/>
    <path d="M176 222C194 207 212 207 230 222" stroke="#102338" stroke-width="10" stroke-linecap="round"/>
    <circle cx="296" cy="223" r="28" fill="#5ADBE4"/>
    <circle cx="296" cy="223" r="14" fill="#102338"/>
    <circle cx="308" cy="211" r="7" fill="white"/>
    <path d="M199 254C220 268 247 275 279 273C302 272 322 266 339 255" stroke="#1594A6" stroke-width="9" stroke-linecap="round"/>
    <path d="M322 111C343 101 358 84 368 61C372 94 388 116 416 126C386 136 368 156 362 187C353 154 340 129 322 111Z" fill="#FFA2B7" stroke="#FF819F" stroke-width="4"/>
    <path d="M286 328C305 313 322 295 338 274M324 332C341 315 355 296 365 274" stroke="#A28EFF" stroke-width="8" stroke-linecap="round"/>
    <text x="505" y="300" font-family="Inter, Avenir Next, Arial, sans-serif" font-size="148" font-weight="900" letter-spacing="-4" fill="#102338">ORT</text>
    <text x="858" y="300" font-family="Inter, Avenir Next, Arial, sans-serif" font-size="148" font-weight="900" letter-spacing="-4" fill="url(#ace2)">ACE</text>
  </g>
</svg>
