<svg xmlns="http://www.w3.org/2000/svg" width="1600" height="480" viewBox="0 0 1600 480" fill="none">
  <defs>
    <linearGradient id="bg2" x1="79" y1="76" x2="419" y2="408" gradientUnits="userSpaceOnUse">
      <stop stop-color="#FFFFFF"/>
      <stop offset="0.44" stop-color="#F2FFFC"/>
      <stop offset="1" stop-color="#E9E6FF"/>
    </linearGradient>
    <linearGradient id="orb2" x1="106" y1="329" x2="382" y2="142" gradientUnits="userSpaceOnUse">
      <stop stop-color="#A3F3E4"/>
      <stop offset="0.48" stop-color="#76D8FF"/>
      <stop offset="1" stop-color="#F6A7C4"/>
    </linearGradient>
    <linearGradient id="ace2" x1="920" y1="160" x2="1365" y2="310" gradientUnits="userSpaceOnUse">
      <stop stop-color="#29CFC4"/>
      <stop offset="0.45" stop-color="#4EB9F4"/>
      <stop offset="1" stop-color="#BCA1FF"/>
    </linearGradient>
    <filter id="shadow2" x="20" y="20" width="1480" height="440" filterUnits="userSpaceOnUse" color-interpolation-filters="sRGB">
      <feDropShadow dx="0" dy="18" stdDeviation="24" flood-color="#314B67" flood-opacity="0.17"/>
      <feDropShadow dx="0" dy="2" stdDeviation="3" flood-color="#0F2437" flood-opacity="0.16"/>
    </filter>
  </defs>
  <rect width="1600" height="480" fill="#FFFDFB"/>
  <g filter="url(#shadow2)">
    <rect x="74" y="70" width="340" height="340" rx="100" fill="url(#bg2)" stroke="#D2EEF3" stroke-width="4"/>
    <path d="M123 315C153 239 202 184 269 150C301 134 335 122 372 115C350 154 338 191 337 226C336 266 354 299 391 326C342 333 296 331 253 319C210 307 167 305 123 315Z" fill="url(#orb2)" opacity="0.82"/>
    <path d="M139 321C190 270 239 235 286 215C325 198 357 190 383 190" stroke="white" stroke-width="12" stroke-linecap="round" opacity="0.84"/>
    <path d="M135 224C169 178 209 155 254 155C299 155 339 178 373 224C339 270 299 293 254 293C209 293 169 270 135 224Z" fill="white" stroke="#102338" stroke-width="11" stroke-linecap="round" stroke-linejoin="round"/>
    <path d="M174 210C191 190 212 180 237 180" stroke="#102338" stroke-width="10" stroke-linecap="round"/>
    <path d="M279 196C303 203 323 218 339 241" stroke="#102338" stroke-width="10" stroke-linecap="round"/>
    <path d="M195 251C211 263 231 269 254 269C279 269 300 262 318 248" stroke="#1594A6" stroke-width="10" stroke-linecap="round"/>
    <circle cx="254" cy="224" r="34" fill="#57DCE2"/>
    <circle cx="254" cy="224" r="17" fill="#102338"/>
    <circle cx="267" cy="211" r="8" fill="white"/>
    <path d="M328 113C347 104 361 90 371 70C374 98 388 116 413 124C388 133 374 150 369 176C359 149 345 128 328 113Z" fill="#FFA3B8" stroke="#FF819F" stroke-width="4"/>
    <path d="M305 329C320 318 334 306 347 291M337 333C350 319 361 304 370 286" stroke="#A28EFF" stroke-width="8" stroke-linecap="round"/>
    <text x="505" y="300" font-family="Inter, Avenir Next, Arial, sans-serif" font-size="148" font-weight="900" letter-spacing="-4" fill="#102338">ORT</text>
    <text x="858" y="300" font-family="Inter, Avenir Next, Arial, sans-serif" font-size="148" font-weight="900" letter-spacing="-4" fill="url(#ace2)">ACE</text>
  </g>
</svg>
