<svg xmlns="http://www.w3.org/2000/svg" width="1600" height="480" viewBox="0 0 1600 480" fill="none">
  <defs>
    <linearGradient id="bg1" x1="100" y1="40" x2="430" y2="430" gradientUnits="userSpaceOnUse">
      <stop stop-color="#FFFFFF"/>
      <stop offset="0.48" stop-color="#E8FFF8"/>
      <stop offset="1" stop-color="#D9ECFF"/>
    </linearGradient>
    <linearGradient id="aqua1" x1="75" y1="332" x2="365" y2="134" gradientUnits="userSpaceOnUse">
      <stop stop-color="#6FE6D5"/>
      <stop offset="0.52" stop-color="#7ED8FF"/>
      <stop offset="1" stop-color="#BCA8FF"/>
    </linearGradient>
    <linearGradient id="pink1" x1="225" y1="92" x2="360" y2="216" gradientUnits="userSpaceOnUse">
      <stop stop-color="#FF92B9"/>
      <stop offset="1" stop-color="#FFC7A8"/>
    </linearGradient>
    <linearGradient id="ace1" x1="926" y1="166" x2="1368" y2="308" gradientUnits="userSpaceOnUse">
      <stop stop-color="#37D7C9"/>
      <stop offset="0.55" stop-color="#55C2F5"/>
      <stop offset="1" stop-color="#A692FF"/>
    </linearGradient>
    <filter id="softShadow1" x="20" y="20" width="1480" height="440" filterUnits="userSpaceOnUse" color-interpolation-filters="sRGB">
      <feDropShadow dx="0" dy="18" stdDeviation="22" flood-color="#24445E" flood-opacity="0.18"/>
      <feDropShadow dx="0" dy="3" stdDeviation="4" flood-color="#0F2437" flood-opacity="0.18"/>
    </filter>
    <filter id="innerGlow1" x="40" y="40" width="390" height="390" filterUnits="userSpaceOnUse" color-interpolation-filters="sRGB">
      <feGaussianBlur stdDeviation="7" result="blur"/>
      <feComposite in="SourceGraphic" in2="blur" operator="over"/>
    </filter>
  </defs>
  <rect width="1600" height="480" fill="#FFFDFB"/>
  <g filter="url(#softShadow1)">
    <rect x="74" y="70" width="340" height="340" rx="92" fill="url(#bg1)" stroke="#C8EEF1" stroke-width="4"/>
    <path d="M111 301C146 228 198 187 266 177C307 171 342 178 377 195" stroke="url(#aqua1)" stroke-width="32" stroke-linecap="round"/>
    <path d="M123 328C173 288 227 263 286 253C330 246 366 251 397 267" stroke="#FFFFFF" stroke-width="10" stroke-linecap="round" opacity="0.84"/>
    <path d="M132 245C165 192 204 164 249 160C291 156 324 172 354 207C322 243 286 261 245 259C199 257 162 252 132 245Z" fill="white" stroke="#10314A" stroke-width="11" stroke-linecap="round" stroke-linejoin="round"/>
    <path d="M159 203C180 175 208 159 244 155" stroke="#10314A" stroke-width="10" stroke-linecap="round"/>
    <path d="M188 238C203 248 222 253 246 253" stroke="#1A99A6" stroke-width="9" stroke-linecap="round"/>
    <circle cx="254" cy="213" r="38" fill="#58D6DE"/>
    <circle cx="254" cy="213" r="20" fill="#102338"/>
    <circle cx="268" cy="197" r="9" fill="white"/>
    <path d="M303 126C326 109 345 91 360 70C361 106 373 132 399 149C366 149 342 161 326 185C326 159 319 140 303 126Z" fill="url(#pink1)" stroke="#FF8EA9" stroke-width="4"/>
    <path d="M329 231C350 224 367 213 382 197" stroke="#7CDCE5" stroke-width="10" stroke-linecap="round"/>
    <path d="M366 198L392 194L385 219" stroke="#7CDCE5" stroke-width="10" stroke-linecap="round" stroke-linejoin="round"/>
    <path d="M127 116C144 102 162 93 182 89" stroke="white" stroke-width="9" stroke-linecap="round" opacity="0.85"/>
    <text x="505" y="300" font-family="Inter, Avenir Next, Arial, sans-serif" font-size="148" font-weight="900" letter-spacing="-4" fill="#102338">ORT</text>
    <text x="858" y="300" font-family="Inter, Avenir Next, Arial, sans-serif" font-size="148" font-weight="900" letter-spacing="-4" fill="url(#ace1)">ACE</text>
  </g>
</svg>
