<svg xmlns="http://www.w3.org/2000/svg" width="1600" height="480" viewBox="0 0 1600 480" fill="none">
  <defs>
    <linearGradient id="bg3" x1="74" y1="70" x2="414" y2="410" gradientUnits="userSpaceOnUse">
      <stop stop-color="#FFFFFF"/>
      <stop offset="0.52" stop-color="#E9FFF7"/>
      <stop offset="1" stop-color="#DDEEFF"/>
    </linearGradient>
    <linearGradient id="ring3" x1="116" y1="342" x2="376" y2="122" gradientUnits="userSpaceOnUse">
      <stop stop-color="#72E7D5"/>
      <stop offset="0.52" stop-color="#65CAFF"/>
      <stop offset="1" stop-color="#B8A5FF"/>
    </linearGradient>
    <linearGradient id="pink3" x1="316" y1="111" x2="407" y2="193" gradientUnits="userSpaceOnUse">
      <stop stop-color="#FF8FB1"/>
      <stop offset="1" stop-color="#FFD0A8"/>
    </linearGradient>
    <linearGradient id="ace3" x1="920" y1="160" x2="1362" y2="310" gradientUnits="userSpaceOnUse">
      <stop stop-color="#2BD7C7"/>
      <stop offset="0.52" stop-color="#48C4F5"/>
      <stop offset="1" stop-color="#A998FF"/>
    </linearGradient>
    <filter id="shadow3" x="20" y="20" width="1480" height="440" filterUnits="userSpaceOnUse" color-interpolation-filters="sRGB">
      <feDropShadow dx="0" dy="18" stdDeviation="24" flood-color="#24445E" flood-opacity="0.18"/>
      <feDropShadow dx="0" dy="2" stdDeviation="4" flood-color="#0F2437" flood-opacity="0.16"/>
    </filter>
  </defs>
  <rect width="1600" height="480" fill="#FFFDFB"/>
  <g filter="url(#shadow3)">
    <rect x="74" y="70" width="340" height="340" rx="96" fill="url(#bg3)" stroke="#CFECEF" stroke-width="4"/>
    <path d="M133 292C159 230 201 185 258 158C303 137 342 132 376 142" stroke="url(#ring3)" stroke-width="30" stroke-linecap="round"/>
    <path d="M121 315C171 292 216 278 256 272C303 265 344 270 379 287" stroke="#FFFFFF" stroke-width="10" stroke-linecap="round" opacity="0.86"/>
    <path d="M134 223C166 180 205 159 251 159C296 159 336 180 369 223C336 267 296 289 251 289C205 289 166 267 134 223Z" fill="white" stroke="#102338" stroke-width="11" stroke-linecap="round" stroke-linejoin="round"/>
    <path d="M169 202C190 184 214 176 241 178" stroke="#102338" stroke-width="10" stroke-linecap="round"/>
    <path d="M292 195C315 203 334 218 350 239" stroke="#102338" stroke-width="10" stroke-linecap="round"/>
    <path d="M190 238C207 251 228 258 253 258" stroke="#1594A6" stroke-width="10" stroke-linecap="round"/>
    <circle cx="256" cy="222" r="35" fill="#5EDFE5"/>
    <circle cx="256" cy="222" r="18" fill="#102338"/>
    <circle cx="270" cy="207" r="8.5" fill="white"/>
    <path d="M316 128C337 116 354 96 367 69C369 105 383 129 410 142C378 147 356 165 344 195C342 165 333 143 316 128Z" fill="url(#pink3)" stroke="#FF8EA9" stroke-width="4"/>
    <path d="M285 318C306 302 324 284 339 263" stroke="#7DDBE5" stroke-width="9" stroke-linecap="round"/>
    <path d="M337 265L365 253L361 283" stroke="#7DDBE5" stroke-width="9" stroke-linecap="round" stroke-linejoin="round"/>
    <circle cx="197" cy="316" r="15" fill="#FF9BAF" stroke="white" stroke-width="5"/>
    <text x="505" y="300" font-family="Inter, Avenir Next, Arial, sans-serif" font-size="148" font-weight="900" letter-spacing="-4" fill="#102338">ORT</text>
    <text x="858" y="300" font-family="Inter, Avenir Next, Arial, sans-serif" font-size="148" font-weight="900" letter-spacing="-4" fill="url(#ace3)">ACE</text>
  </g>
</svg>
